
<svg width="193px" height="110px" viewBox="0 0 193 110" version="1.1" xmlns="http://www.w3.org/2000/svg" xmlns:xlink="http://www.w3.org/1999/xlink">
    <!-- Generator: Sketch 49.3 (51167) - http://www.bohemiancoding.com/sketch -->
    <desc>Created with Sketch.</desc>
    <defs></defs>
    <g id="Page-1" stroke="none" stroke-width="1" fill="none" fill-rule="evenodd">
        <g id="Desktop-HD" transform="translate(-338.000000, -261.000000)" fill="#FFFFFF">
            <g id="REDUCE" transform="translate(335.000000, 261.000000)">
                <path d="M3.30371094,108.527698 L3.30371094,57.3455333 C3.30371094,56.6513873 3.65998993,56.3043195 4.37255859,56.3043195 L21.0206706,56.3043195 C24.1516541,56.3043195 26.5268474,57.1177596 28.1463216,58.7446643 C29.7657959,60.3715689 30.5755208,62.75766 30.5755208,65.9030089 L30.5755208,82.1394361 C30.5755208,86.6080009 28.9668672,89.5472312 25.7495117,90.9572152 L30.3164063,108.397546 C30.5107432,109.200152 30.1976495,109.601449 29.3771159,109.601449 L22.4781901,109.601449 C21.8519934,109.601449 21.4741217,109.286919 21.3445638,108.657849 L16.9072266,91.7381256 L12.340332,91.7381256 L12.340332,108.527698 C12.340332,108.853079 12.243165,109.113379 12.0488281,109.308608 C11.8544912,109.503836 11.5953792,109.601449 11.2714844,109.601449 L4.37255859,109.601449 C4.04866375,109.601449 3.78955175,109.503836 3.59521484,109.308608 C3.40087793,109.113379 3.30371094,108.853079 3.30371094,108.527698 Z M12.340332,82.9528844 L18.9153646,82.9528844 C20.6859898,82.9528844 21.5712891,82.0635232 21.5712891,80.2847741 L21.5712891,67.757671 C21.5712891,65.9789219 20.6859898,65.0895607 18.9153646,65.0895607 L12.340332,65.0895607 L12.340332,82.9528844 Z M37.1829427,108.527698 L37.1829427,57.3455333 C37.1829427,57.0201524 37.2747115,56.7652745 37.458252,56.5808919 C37.6417924,56.3965094 37.8847099,56.3043195 38.1870117,56.3043195 L62.6085612,56.3043195 C63.3211299,56.3043195 63.6774089,56.6513873 63.6774089,57.3455333 L63.6774089,64.015809 C63.6774089,64.7750312 63.3211299,65.1546365 62.6085612,65.1546365 L46.0252279,65.1546365 L46.0252279,78.495188 L58.6894531,78.495188 C59.4020218,78.495188 59.7583008,78.8639475 59.7583008,79.6014776 L59.7583008,86.2066774 C59.7583008,86.9658996 59.4020218,87.345505 58.6894531,87.345505 L46.0252279,87.345505 L46.0252279,100.816208 L62.6085612,100.816208 C63.018828,100.816208 63.2995327,100.892129 63.4506836,101.043974 C63.6018345,101.195818 63.6774089,101.466965 63.6774089,101.857422 L63.6774089,108.527698 C63.6774089,109.243536 63.3211299,109.601449 62.6085612,109.601449 L38.1870117,109.601449 C37.8847099,109.601449 37.6417924,109.503836 37.458252,109.308608 C37.2747115,109.113379 37.1829427,108.853079 37.1829427,108.527698 Z M69.6046549,108.527698 L69.6046549,57.3455333 C69.6046549,56.6513873 69.9609339,56.3043195 70.6735026,56.3043195 L86.6090495,56.3043195 C89.740033,56.3043195 92.1152263,57.1286055 93.7347005,58.7772022 C95.3541748,60.4257989 96.1638997,62.8227358 96.1638997,65.9680848 L96.1638997,100.00276 C96.1638997,103.148109 95.3541748,105.5342 93.7347005,107.161105 C92.1152263,108.788009 89.740033,109.601449 86.6090495,109.601449 L70.6735026,109.601449 C69.9609339,109.601449 69.6046549,109.243536 69.6046549,108.527698 Z M78.641276,100.816208 L84.7304688,100.816208 C86.5010939,100.816208 87.3863932,99.9268469 87.3863932,98.1480978 L87.3863932,67.8227468 C87.3863932,66.0006136 86.5010939,65.0895607 84.7304688,65.0895607 L78.641276,65.0895607 L78.641276,100.816208 Z M102.771322,100.00276 L102.771322,57.6383747 C102.771322,57.2696096 102.900878,56.9550794 103.159993,56.6947747 C103.419109,56.4344699 103.732203,56.3043195 104.099284,56.3043195 L110.47998,56.3043195 C110.847061,56.3043195 111.160155,56.4344699 111.419271,56.6947747 C111.678387,56.9550794 111.807943,57.2696096 111.807943,57.6383747 L111.807943,98.1480978 C111.807943,99.9268469 112.693242,100.816208 114.463867,100.816208 L117.897135,100.816208 C119.667761,100.816208 120.55306,99.9268469 120.55306,98.1480978 L120.55306,57.6383747 C120.55306,57.2696096 120.682616,56.9550794 120.941732,56.6947747 C121.200848,56.4344699 121.513941,56.3043195 121.881022,56.3043195 L128.002604,56.3043195 C128.369685,56.3043195 128.682779,56.4344699 128.941895,56.6947747 C129.20101,56.9550794 129.330566,57.2696096 129.330566,57.6383747 L129.330566,100.00276 C129.330566,103.148109 128.520841,105.5342 126.901367,107.161105 C125.281893,108.788009 122.9067,109.601449 119.775716,109.601449 L112.326172,109.601449 C109.195188,109.601449 106.819995,108.788009 105.200521,107.161105 C103.581047,105.5342 102.771322,103.148109 102.771322,100.00276 Z M135.937988,100.00276 L135.937988,65.9030089 C135.937988,62.75766 136.75851,60.3715689 138.399577,58.7446643 C140.040644,57.1177596 142.426634,56.3043195 145.557617,56.3043195 L153.007161,56.3043195 C156.094959,56.3043195 158.459356,57.1231826 160.100423,58.7609333 C161.74149,60.3986839 162.562012,62.779352 162.562012,65.9030089 L162.562012,73.0938915 C162.562012,73.7880375 162.205733,74.1351053 161.493164,74.1351053 L154.853353,74.1351053 C154.140784,74.1351053 153.784505,73.7880375 153.784505,73.0938915 L153.784505,67.757671 C153.784505,65.9789219 152.899206,65.0895607 151.128581,65.0895607 L147.695312,65.0895607 C145.924687,65.0895607 145.039388,65.9789219 145.039388,67.757671 L145.039388,98.1480978 C145.039388,99.9268469 145.924687,100.816208 147.695312,100.816208 L151.128581,100.816208 C152.899206,100.816208 153.784505,99.9268469 153.784505,98.1480978 L153.784505,92.8118773 C153.784505,92.0960392 154.140784,91.7381256 154.853353,91.7381256 L161.493164,91.7381256 C161.817059,91.7381256 162.076171,91.8357384 162.270508,92.0309669 C162.464845,92.2261955 162.562012,92.4864963 162.562012,92.8118773 L162.562012,100.00276 C162.562012,103.126417 161.74149,105.507085 160.100423,107.144836 C158.459356,108.782586 156.094959,109.601449 153.007161,109.601449 L145.557617,109.601449 C142.426634,109.601449 140.040644,108.788009 138.399577,107.161105 C136.75851,105.5342 135.937988,103.148109 135.937988,100.00276 Z M169.169434,108.527698 L169.169434,57.3455333 C169.169434,57.0201524 169.261202,56.7652745 169.444743,56.5808919 C169.628283,56.3965094 169.871201,56.3043195 170.173503,56.3043195 L194.595052,56.3043195 C195.307621,56.3043195 195.6639,56.6513873 195.6639,57.3455333 L195.6639,64.015809 C195.6639,64.7750312 195.307621,65.1546365 194.595052,65.1546365 L178.011719,65.1546365 L178.011719,78.495188 L190.675944,78.495188 C191.388513,78.495188 191.744792,78.8639475 191.744792,79.6014776 L191.744792,86.2066774 C191.744792,86.9658996 191.388513,87.345505 190.675944,87.345505 L178.011719,87.345505 L178.011719,100.816208 L194.595052,100.816208 C195.005319,100.816208 195.286024,100.892129 195.437174,101.043974 C195.588325,101.195818 195.6639,101.466965 195.6639,101.857422 L195.6639,108.527698 C195.6639,109.243536 195.307621,109.601449 194.595052,109.601449 L170.173503,109.601449 C169.871201,109.601449 169.628283,109.503836 169.444743,109.308608 C169.261202,109.113379 169.169434,108.853079 169.169434,108.527698 Z"></path>
                <path d="M4.49122807,0 L61.8421053,0 C62.39439,-4.02567223e-15 62.8421053,0.44771525 62.8421053,1 L62.8421053,47.2246377 C62.8421053,47.7769224 62.39439,48.2246377 61.8421053,48.2246377 L4.49122807,48.2246377 C3.93894332,48.2246377 3.49122807,47.7769224 3.49122807,47.2246377 L3.49122807,1 C3.49122807,0.44771525 3.93894332,1.01453063e-16 4.49122807,0 Z" id="Rectangle"></path>
            </g>
        </g>
    </g>
</svg>